<svg width="1600" height="1100" viewBox="0 0 1600 1100" fill="none" xmlns="http://www.w3.org/2000/svg">
  <rect width="1600" height="1100" fill="#FFFFFF"/>
  <path d="M0 776C188 644 351 611 521 672C744 752 882 596 1061 538C1258 473 1438 553 1600 652V1100H0V776Z" fill="#F0FDF4"/>
  <path d="M0 861C180 742 368 722 542 778C767 850 911 710 1092 656C1293 597 1469 676 1600 762V1100H0V861Z" fill="#EFF6FF"/>
  <path d="M986 638C1104 540 1248 507 1398 554C1471 577 1537 617 1600 664V1100H843C834 933 875 731 986 638Z" fill="#FFF7ED"/>
  <path d="M0 921C171 845 340 834 533 898C762 974 954 876 1140 806C1311 742 1469 779 1600 851V1100H0V921Z" fill="#FFF7ED"/>
  <circle cx="1270" cy="238" r="160" fill="#F97316" fill-opacity="0.18"/>
  <circle cx="1270" cy="238" r="90" fill="#F97316" fill-opacity="0.12"/>
  <circle cx="280" cy="180" r="110" fill="#2563EB" fill-opacity="0.1"/>
  <path d="M376 328C451 260 544 241 642 272C715 295 771 342 823 403C733 379 654 387 575 426C481 473 402 448 316 410C338 378 356 346 376 328Z" fill="#16A34A" fill-opacity="0.09"/>
  <path d="M118 544C223 455 345 426 483 467C612 506 693 602 831 616C686 674 557 670 429 616C308 565 208 551 92 600C99 581 106 562 118 544Z" fill="#2563EB" fill-opacity="0.07"/>
  <path d="M891 230C1005 164 1148 162 1279 229C1399 290 1496 395 1600 462V633C1490 557 1382 487 1261 468C1114 445 998 506 876 546C747 588 626 576 511 520C642 509 742 445 829 338C849 313 868 249 891 230Z" fill="#F97316" fill-opacity="0.06"/>
  <g opacity="0.35">
    <path d="M296 768C404 681 514 680 638 731" stroke="#16A34A" stroke-width="2" stroke-linecap="round"/>
    <path d="M902 725C1052 614 1218 601 1390 688" stroke="#2563EB" stroke-width="2" stroke-linecap="round"/>
    <path d="M657 832C777 756 899 740 1034 785" stroke="#F97316" stroke-width="2" stroke-linecap="round"/>
  </g>
</svg>
